inDegrees=yes
name=ik_S56_A04_T01
DataType=double
version=3
OpenSimVersion=4.3-2021-08-27-4bc7ad9
endheader
time	pelvis_tilt	pelvis_list	pelvis_rotation	pelvis_tx	pelvis_ty	pelvis_tz	hip_flexion_r	hip_adduction_r	hip_rotation_r	knee_angle_r	knee_angle_r_beta	ankle_angle_r	subtalar_angle_r	mtp_angle_r	hip_flexion_l	hip_adduction_l	hip_rotation_l	knee_angle_l	knee_angle_l_beta	ankle_angle_l	subtalar_angle_l	mtp_angle_l	lumbar_extension	lumbar_bending	lumbar_rotation	arm_flex_r	arm_add_r	arm_rot_r	elbow_flex_r	pro_sup_r	wrist_flex_r	wrist_dev_r	arm_flex_l	arm_add_l	arm_rot_l	elbow_flex_l	pro_sup_l	wrist_flex_l	wrist_dev_l
19.65999999999967	19.47891210009344	14.16711598039438	36.64012702697835	0	0.9399999999999999	0	39.28774059680167	-13.39544787125722	13.35285841977847	86.85389580286638	1.515886449944102	0	0	0	43.46546354986088	10.53972212670542	-2.196945354227846	87.85863794114469	1.533422508390587	0	0	0	0	0	0	25.63351730700223	-25.63351730700223	3.86669127490915	70.49422602972783	86.13330894432818	0	0	25.63351730700223	-25.63351730700223	3.86669127490915	70.49422602972783	86.1333089441176	0	0
19.67999999999967	19.76070454669093	14.31741116418208	36.65089489156417	0	0.9399999999999999	0	38.99108539766802	-13.45140066251662	13.20008155457136	86.9792974686041	1.518075121898711	0	0	0	43.24871209779774	10.49704483132154	-2.111809840730881	87.97060326392065	1.535376671921086	0	0	0	0	0	0	25.63503781481415	-25.63503781481415	3.866864327746086	70.49649082675917	86.13313589150044	0	0	25.63503781481415	-25.63503781481415	3.866864327746086	70.49649082675917	86.13313589128987	0	0
19.69999999999967	20.03136450857967	14.42964495261793	36.65497412535885	0	0.9399999999999999	0	38.74744269339298	-13.46677491466247	13.04729699527596	87.07886570563308	1.519812915465272	0	0	0	43.07667061883048	10.43589277172829	-1.973120166730389	88.08157576217479	1.537313507394784	0	0	0	0	0	0	25.6368945418557	-25.6368945418557	3.867076945941899	70.49927463251518	86.13292327331594	0	0	25.6368945418557	-25.6368945418557	3.867076945941899	70.49927463251518	86.13292327310548	0	0
19.71999999999967	20.29424730593403	14.53129116957486	36.674511596366	0	0.9399999999999999	0	38.48648163989972	-13.48858727482224	12.84966564637612	87.16457221259064	1.521308776202065	0	0	0	42.91808427384181	10.39629813587545	-1.807970781839646	88.20056613266436	1.539390281137995	0	0	0	0	0	0	25.63877864072179	-25.63877864072179	3.867292501144912	70.50209668794139	86.13270771812446	0	0	25.63877864072179	-25.63877864072179	3.867292501144912	70.50209668794139	86.13270771791402	0	0
19.73999999999967	20.5136202091955	14.61231942732388	36.67616563082277	0	0.9399999999999999	0	38.27555819559365	-13.50752477949528	12.73814294241828	87.23791193587223	1.522588795845831	0	0	0	42.78468379074812	10.37387027649011	-1.679971938835346	88.29867965718641	1.541102685181641	0	0	0	0	0	0	25.6404650535877	-25.6404650535877	3.867485072305582	70.50461747612292	86.13251514697411	0	0	25.6404650535877	-25.6404650535877	3.867485072305582	70.50461747612292	86.13251514676367	0	0
19.75999999999967	20.7538556394945	14.69570538442264	36.66386428452854	0	0.9399999999999999	0	38.06935816324217	-13.53406911403214	12.64646551955671	87.30148561750651	1.523698365907964	0	0	0	42.59907002591975	10.33604711826879	-1.608168186856329	88.37107522205574	1.542366226152452	0	0	0	0	0	0	25.64194982299771	-25.64194982299771	3.867654011882942	70.50682834401472	86.13234620740579	0	0	25.64194982299771	-25.64194982299771	3.867654011882942	70.50682834401472	86.13234620719538	0	0
19.77999999999967	20.98755964669384	14.7652277501079	36.65007483340953	0	0.9399999999999999	0	37.8249487739691	-13.51175627117388	12.56116153701642	87.31452852764785	1.523926007633972	0	0	0	42.35855555967628	10.30539478309616	-1.512620763455236	88.36909490576471	1.542331663112942	0	0	0	0	0	0	25.66821932536061	-25.66821932536061	3.870655612625721	70.54608763745935	86.12934460682315	0	0	25.66821932536061	-25.66821932536061	3.870655612625721	70.54608763745935	86.12934460661329	0	0
19.79999999999967	21.23742556363722	14.84825756140359	36.61122440679648	0	0.9399999999999999	0	37.58822851727231	-13.50926143316699	12.46252164124393	87.37149616919774	1.524920280546113	0	0	0	42.15936481438841	10.26085691426279	-1.453278641316588	88.42558182824762	1.543317545894588	0	0	0	0	0	0	25.66969194682143	-25.66969194682143	3.870822143490818	70.54826581625365	86.12917807596696	0	-1.804724621677397e-35	25.66969194682143	-25.66969194682143	3.870822143490818	70.54826581625365	86.12917807575707	0	-1.804724621677397e-35
19.81999999999967	21.4673238360205	14.92919847051294	36.60915823235079	0	0.9399999999999999	0	37.34925404283535	-13.50474249798027	12.37118062489808	87.39684828709498	1.525362758475774	0	0	0	41.93322824553127	10.25179749362215	-1.448206540417201	88.44165725019936	1.543598114936293	0	0	0	0	0	0	25.67120555577424	-25.67120555577424	3.870994879185205	70.55052660678622	86.12900534028181	0	2.557306370264822e-36	25.67120555577424	-25.67120555577424	3.870994879185205	70.55052660678622	86.12900534007194	0	2.557306370264822e-36
19.83999999999967	21.90673164878281	15.03354861890897	36.64930953417272	0	0.9399999999999999	0	36.93619178671617	-13.56559300251603	12.05403050647143	87.43466251330808	1.526022741227286	0	0	0	41.45666616093378	10.25883467382819	-1.346351992785545	88.41600715777565	1.543150436370059	0	0	0	0	0	0	25.67295353687901	-25.67295353687901	3.871193136330367	70.55312028109257	86.12880708314725	0	0	25.67295353687901	-25.67295353687901	3.871193136330367	70.55312028109257	86.12880708293744	0	0
19.85999999999967	21.99291085833284	15.05250372648505	36.67254170146641	0	0.9399999999999999	0	36.90660423451495	-13.68962525981802	11.98924962208793	87.44672780736119	1.526233320333734	0	0	0	41.37075385336904	10.25738301421757	-1.41133703933496	88.3697096156985	1.542342391825232	0	0	0	0	0	0	25.67413299892422	-25.67413299892422	3.871327573621856	70.55487964977466	86.12867264586292	0	0	25.67413299892422	-25.67413299892422	3.871327573621856	70.55487964977466	86.12867264565314	0	0
19.87999999999967	22.20929707133099	15.09214972972058	36.69885096904824	0	0.9399999999999999	0	36.71326444515471	-13.75452081615631	11.87773175499115	87.45246843320267	1.526333513155793	0	0	0	41.16100737711659	10.28134022486189	-1.389016169033595	88.33576124520202	1.541749880984381	0	0	0	0	0	0	25.67559117131233	-25.67559117131233	3.871494119782624	70.55705952832581	86.128506099711	0	0	25.67559117131233	-25.67559117131233	3.871494119782624	70.55705952832581	86.12850609950125	0	0
19.89999999999966	22.45156825161539	15.13259110518115	36.70065820340574	0	0.9399999999999999	0	36.485260282388	-13.80149545007098	11.80743543881957	87.44849492916892	1.526264162427563	0	0	0	40.95191438792033	10.26708671764339	-1.406723759063052	88.31366393060669	1.541364210088844	0	0	0	0	0	0	25.67705336507206	-25.67705336507206	3.871661633357778	70.55925252682751	86.12833858614478	0	0	25.67705336507206	-25.67705336507206	3.871661633357778	70.55925252682751	86.1283385859351	0	0
19.91999999999966	22.70810584696704	15.17962325466182	36.71810149052342	0	0.9399999999999999	0	36.24839402260397	-13.86226136813494	11.73325394506317	87.45584493585575	1.526392444244292	0	0	0	40.7305516432012	10.26418195219935	-1.42920843134383	88.2975046593902	1.541082177601393	0	0	0	0	0	0	25.67856961396769	-25.67856961396769	3.871835515442011	70.56152904795576	86.12816470406983	0	0	25.67856961396769	-25.67856961396769	3.871835515442011	70.56152904795576	86.12816470386014	0	0
19.93999999999966	22.93554532979792	15.19525929501963	36.72807695605908	0	0.9399999999999999	0	36.04575976320353	-13.90661166805853	11.66636734443185	87.41243444180361	1.525634788193165	0	0	0	40.56956622187456	10.23814544746868	-1.405127882394299	88.29028241882541	1.540956125724167	0	0	0	0	0	0	25.68017587463522	-25.68017587463522	3.872019656882079	70.56393981723313	86.12798056263959	0	0	25.68017587463522	-25.68017587463522	3.872019656882079	70.56393981723313	86.12798056242995	0	0
19.95999999999966	23.13178319764908	15.21766533891418	36.74628949006611	0	0.9399999999999999	0	35.86171974164365	-13.96075537516297	11.61271845864771	87.3492816030144	1.524532563224312	0	0	0	40.45330662023627	10.29254252877714	-1.518707961162936	88.29331611844627	1.541009073771067	0	0	0	0	0	0	25.68165066880007	-25.68165066880007	3.872188912473142	70.56615586057902	86.12781130705757	0	0	25.68165066880007	-25.68165066880007	3.872188912473142	70.56615586057902	86.12781130684797	0	0
19.97999999999966	23.34441619667162	15.23173887929774	36.75673576108066	0	0.9399999999999999	0	35.65752373815432	-13.98499896456116	11.53605706925924	87.27545456687012	1.523244038366605	0	0	0	40.2622891370812	10.24804633480232	-1.396040625881003	88.28787618614717	1.540914129041362	0	0	0	0	0	0	25.6836601514979	-25.6836601514979	3.872418234972527	70.56915713957729	86.12758198457051	0	0	25.6836601514979	-25.6836601514979	3.872418234972527	70.56915713957729	86.12758198436096	0	0
19.99999999999966	23.51940820958564	15.23396247312348	36.76640122181141	0	0.9399999999999999	0	35.49071028125547	-14.0283014432422	11.513245125896	87.23523728717551	1.522542114419739	0	0	0	40.12054779372774	10.26356725183266	-1.40152604359471	88.28633924554691	1.54088730436748	0	0	0	0	0	0	25.68530144763493	-25.68530144763493	3.8726065518086	70.57162267293347	86.1273936677445	0	0	25.68530144763493	-25.68530144763493	3.8726065518086	70.57162267293347	86.12739366753496	0	0
20.01999999999966	23.69078750155122	15.24682974917559	36.76536187513997	0	0.9399999999999999	0	35.32013541779452	-14.0799038493124	11.53815707190401	87.19242104872515	1.521794830085461	0	0	0	39.96116045829829	10.29737496519882	-1.404618667873057	88.2659975381759	1.540532274598379	0	0	0	0	0	0	25.68682456755147	-25.68682456755147	3.872781219756452	70.57390941220859	86.12721899980596	0	0	25.68682456755147	-25.68682456755147	3.872781219756452	70.57390941220859	86.12721899959645	0	0
20.03999999999966	23.76237230950205	15.23560303329978	36.77209846621843	0	0.9399999999999999	0	35.25213149402688	-14.11365819403758	11.59183736282223	87.14641675233736	1.520991903643431	0	0	0	39.88490167359639	10.41799757225841	-1.523734022132661	88.21335911566821	1.539613560812564	0	0	0	0	0	0	25.68846801907913	-25.68846801907913	3.87297000158651	70.57638120484627	86.12703021798599	0	0	25.68846801907913	-25.68846801907913	3.87297000158651	70.57638120484627	86.12703021777649	0	0
20.05999999999966	23.91196105583418	15.20935183769105	36.80747833414031	0	0.9399999999999999	0	35.10359533173871	-14.12219949000265	11.5624681587118	87.11441874902484	1.520433433131563	0	0	0	39.73897060511278	10.45530845496698	-1.429260690479411	88.1823451245143	1.539072264552743	0	0	0	0	0	0	25.6900921257986	-25.6900921257986	3.873155945222561	70.57881525480947	86.12684427435985	0	0	25.6900921257986	-25.6900921257986	3.873155945222561	70.57881525480947	86.12684427415043	0	0
20.07999999999966	23.95653126839388	15.19593210313269	36.81489910551689	0	0.9399999999999999	0	35.0379353162223	-14.14852402148062	11.625381376721	87.07166501558008	1.519687239715432	0	0	0	39.66346206024372	10.49954827150673	-1.410809881406445	88.1529329552577	1.538558925359062	0	0	0	0	0	0	25.69135090606854	-25.69135090606854	3.873300044473488	70.58070152386381	86.12670017511662	0	0	25.69135090606854	-25.69135090606854	3.873300044473488	70.58070152386381	86.12670017490721	0	0
